<?xml version="1.0" encoding="UTF-8" standalone="no"?>
<!-- Created with Inkscape (http://www.inkscape.org/) -->

<svg
   xmlns:dc="http://purl.org/dc/elements/1.1/"
   xmlns:cc="http://creativecommons.org/ns#"
   xmlns:rdf="http://www.w3.org/1999/02/22-rdf-syntax-ns#"
   xmlns:svg="http://www.w3.org/2000/svg"
   xmlns="http://www.w3.org/2000/svg"
   xmlns:sodipodi="http://sodipodi.sourceforge.net/DTD/sodipodi-0.dtd"
   xmlns:inkscape="http://www.inkscape.org/namespaces/inkscape"
   width="210mm"
   height="297mm"
   viewBox="0 0 210 297"
   version="1.1"
   id="svg8"
   inkscape:version="0.92.3 (2405546, 2018-03-11)"
   sodipodi:docname="account.svg"
   inkscape:export-filename="C:\Users\Vasanthi\Documents\GitHub\suryanarayanan21.github.io\IMG\account.png"
   inkscape:export-xdpi="96"
   inkscape:export-ydpi="96">
  <defs
     id="defs2" />
  <sodipodi:namedview
     id="base"
     pagecolor="#ffffff"
     bordercolor="#666666"
     borderopacity="1.0"
     inkscape:pageopacity="0.0"
     inkscape:pageshadow="2"
     inkscape:zoom="1.4"
     inkscape:cx="279.85732"
     inkscape:cy="957.13015"
     inkscape:document-units="mm"
     inkscape:current-layer="layer1"
     showgrid="false"
     inkscape:window-width="1366"
     inkscape:window-height="705"
     inkscape:window-x="-8"
     inkscape:window-y="-8"
     inkscape:window-maximized="1" />
  <metadata
     id="metadata5">
    <rdf:RDF>
      <cc:Work
         rdf:about="">
        <dc:format>image/svg+xml</dc:format>
        <dc:type
           rdf:resource="http://purl.org/dc/dcmitype/StillImage" />
        <dc:title></dc:title>
      </cc:Work>
    </rdf:RDF>
  </metadata>
  <g
     inkscape:label="Layer 1"
     inkscape:groupmode="layer"
     id="layer1">
    <g
       id="g3761">
      <path
         transform="scale(0.26458333)"
         id="path3755"
         d="M 227.88672 247.38281 A 70.205605 70.205605 0 0 0 284.35742 276.01172 A 70.205605 70.205605 0 0 0 354.56445 205.80664 A 70.205605 70.205605 0 0 0 345.25391 171.04883 L 227.88672 247.38281 z "
         style="fill:#ffffff;stroke:#ffffff;stroke-width:0.99999994" />
      <path
         inkscape:connector-curvature="0"
         id="path3713"
         d="M 62.411695,63.3367 93.465097,43.140001 A 18.575233,18.575233 0 0 0 77.352901,33.761245 18.575233,18.575233 0 0 0 58.777807,52.336338 18.575233,18.575233 0 0 0 62.411695,63.3367 Z"
         style="fill:#ffffff;stroke:#ffffff;stroke-width:0.26458332" />
      <path
         transform="scale(0.26458333)"
         id="path3752"
         d="M 243.2832 237.36719 C 242.04657 238.63307 240.82383 240.09708 239.58594 241.25586 A 57.166484 57.166484 0 0 0 284.35742 262.97266 A 57.166484 57.166484 0 0 0 327.87695 242.85547 C 317.31629 233.36879 306.5426 220.03482 298.10938 201.71094 L 243.2832 237.36719 z "
         style="fill:#00ff00;stroke:#00ff00;stroke-width:0.81427228" />
      <path
         inkscape:connector-curvature="0"
         id="circle3715"
         d="M 66.485347,60.686734 80.99144,51.252685 C 80.484605,50.15142 79.999311,49.004427 79.565686,47.760391 a 6.0476193,6.0476193 0 0 0 3.671093,-5.554184 6.0476193,6.0476193 0 0 0 -6.047692,-6.047692 6.0476193,6.0476193 0 0 0 -6.047176,6.047692 6.0476193,6.0476193 0 0 0 3.269051,5.365565 c -2.016543,5.875473 -4.943163,10.061969 -7.925615,13.114962 z"
         style="fill:#00ff00;stroke:#00ff00;stroke-width:0.21544287" />
    </g>
  </g>
</svg>
